<?xml version="1.0" standalone="no"?>
<!DOCTYPE svg PUBLIC "-//W3C//DTD SVG 20010904//EN"
 "http://www.w3.org/TR/2001/REC-SVG-20010904/DTD/svg10.dtd">
<svg version="1.0" xmlns="http://www.w3.org/2000/svg"
 width="300.000000pt" height="300.000000pt" viewBox="0 0 300.000000 300.000000"
 preserveAspectRatio="xMidYMid meet">
<metadata>
Created by potrace 1.10, written by Peter Selinger 2001-2011
</metadata>
<g transform="translate(0.000000,300.000000) scale(0.100000,-0.100000)"
fill="#000000" stroke="none">
<path d="M150 1985 c0 0 -1 -93 -3 -208 l-2 -207 87 0 87 0 3 131 3 130 75
-130 75 -131 66 0 66 0 74 130 c41 71 76 129 79 130 3 0 4 -58 2 -130 l-3
-130 91 0 90 0 -2 206 -3 207 -103 1 -103 1 -92 -147 c-51 -81 -94 -147 -97
-147 -3 0 -45 65 -95 145 l-90 145 -103 2 c-56 1 -102 2 -102 2z m206 -82 c14
-21 52 -80 85 -131 35 -56 69 -97 85 -104 24 -11 29 -9 54 19 15 17 55 76 89
131 34 55 68 105 76 112 8 6 40 10 77 8 l63 -3 0 -160 0 -160 -34 -3 c-20 -2
-37 2 -42 10 -5 7 -9 51 -9 98 0 87 -15 130 -44 130 -21 0 -58 -46 -116 -143
-52 -87 -57 -92 -92 -95 -45 -4 -51 2 -132 133 -51 83 -65 100 -86 100 -36 0
-50 -36 -50 -137 0 -84 -1 -88 -24 -94 -60 -15 -61 -12 -64 151 -1 82 0 155 2
162 4 9 26 13 71 13 64 0 66 -1 91 -37z"/>
<path d="M1179 1870 c-40 -63 -99 -155 -131 -203 -32 -49 -58 -90 -58 -93 0
-2 40 -4 88 -4 l88 0 17 35 17 35 133 0 133 0 17 -35 17 -35 89 0 90 0 -132
206 -132 206 -81 1 -81 2 -74 -115z m223 53 c28 -32 188 -288 188 -300 0 -26
-53 -13 -91 22 l-39 35 -121 0 c-125 0 -148 -6 -186 -47 -21 -22 -83 -34 -83
-15 0 8 52 92 153 250 l47 72 58 0 c44 0 63 -5 74 -17z"/>
<path d="M1286 1857 c-14 -18 -33 -50 -41 -72 -16 -37 -16 -38 9 -64 50 -49
176 -27 176 31 0 45 -68 138 -101 138 -10 0 -29 -15 -43 -33z m115 -103 c10
-12 -1 -14 -66 -14 l-77 0 14 23 c8 12 25 42 38 66 l22 44 29 -53 c16 -29 34
-59 40 -66z"/>
<path d="M1730 1778 l0 -208 88 0 87 0 -3 60 -4 60 80 0 c93 0 119 -15 137
-76 l11 -39 85 -3 86 -3 -13 52 c-15 57 -27 75 -55 84 -18 6 -16 9 13 29 38
25 62 85 53 128 -4 16 -18 42 -32 58 -40 48 -99 59 -331 62 l-202 3 0 -207z
m430 151 c93 -21 118 -89 60 -165 -16 -21 -30 -42 -30 -47 0 -4 12 -25 26 -47
30 -44 25 -60 -16 -60 -24 0 -35 8 -55 40 -39 61 -76 80 -162 80 -81 0 -107
-15 -119 -67 -11 -53 -12 -54 -51 -51 l-38 3 -3 150 c-1 82 0 155 2 162 7 16
317 18 386 2z"/>
<path d="M1898 1911 c-49 -39 -46 -123 7 -151 37 -20 189 -9 216 16 35 32 42
53 28 85 -17 41 -59 60 -148 66 -67 5 -79 3 -103 -16z m203 -41 c10 -6 19 -21
19 -34 0 -33 -42 -46 -141 -46 l-79 0 0 45 0 45 91 0 c50 0 99 -5 110 -10z"/>
<path d="M2384 1874 l118 -113 -4 -95 -3 -96 88 0 87 0 0 99 0 99 114 109 114
110 -101 -4 -102 -3 -54 -61 -54 -61 -61 61 -62 61 -99 3 -99 3 118 -112z
m118 11 c32 -30 68 -55 79 -55 10 0 46 25 79 55 45 41 67 55 90 55 38 0 32
-17 -21 -60 -22 -18 -54 -50 -70 -73 -26 -36 -29 -48 -29 -113 0 -70 -1 -74
-24 -80 -53 -13 -61 -4 -67 76 -6 90 -10 98 -88 175 -34 33 -61 63 -61 67 0 4
12 8 26 8 18 0 45 -17 86 -55z"/>
</g>
</svg>
